<svg width="512" height="512" viewBox="0 0 512 512" fill="none" xmlns="http://www.w3.org/2000/svg">
<path fill-rule="evenodd" clip-rule="evenodd" d="M358.279 61.8072C378.205 77.7683 393.85 98.4329 403.806 121.941C385.019 134.772 363.126 143.284 340.658 146.859C318.189 150.434 295.208 148.986 273.366 142.62C251.524 136.254 231.364 125.127 214.335 110.04C203.459 100.404 194.033 89.3063 186.31 77.0954C179.893 81.7247 173.893 86.9493 168.393 92.7155C162.265 99.14 156.838 106.154 152.181 113.635C164.89 120.509 176.604 129.156 186.959 139.35C203.171 155.311 215.646 174.666 223.486 196.023C231.326 217.381 234.337 240.21 232.302 262.87C230.266 285.53 223.236 307.457 211.715 327.075C187.762 318.24 163.375 302.999 146.49 283.85C129.605 264.701 117.746 241.654 111.98 216.784C106.213 191.913 106.72 165.999 113.455 141.374C120.19 116.748 132.942 94.183 150.563 75.7089C168.184 57.2349 190.121 43.4315 214.401 35.5406C238.681 27.6497 264.542 25.9189 289.657 30.5039C314.772 35.089 338.354 45.846 358.279 61.8072ZM164.971 267.554C150.788 251.469 140.827 232.109 135.983 211.218C131.139 190.327 131.565 168.56 137.223 147.874C138.351 143.747 139.681 139.69 141.204 135.714C151.593 141.421 161.177 148.546 169.672 156.909C183.291 170.316 193.77 186.574 200.356 204.514C206.941 222.455 209.47 241.631 207.76 260.665C206.69 272.586 203.973 284.265 199.715 295.378C186.655 288.204 174.89 278.803 164.971 267.554ZM285.232 54.7433C264.136 50.8919 242.412 52.3457 222.017 58.9741C217.085 60.577 212.268 62.4703 207.59 64.6394C213.991 74.6147 221.752 83.6919 230.675 91.5971C244.979 104.27 261.914 113.617 280.261 118.965C298.608 124.312 317.913 125.528 336.786 122.525C348.606 120.645 360.073 117.138 370.87 112.133C363.313 100.358 353.87 89.8456 342.875 81.038C326.137 67.6306 306.329 58.5947 285.232 54.7433Z" fill="#EB5B0C"/>
<path fill-rule="evenodd" clip-rule="evenodd" d="M153.527 450.606C133.601 434.645 117.957 413.98 108 390.471C126.788 377.641 148.68 369.129 171.148 365.554C193.617 361.979 216.598 363.426 238.44 369.793C260.282 376.159 280.442 387.286 297.471 402.373C308.347 412.009 317.773 423.107 325.497 435.318C331.913 430.688 337.913 425.464 343.413 419.697C349.541 413.273 354.968 406.259 359.625 398.778C346.916 391.904 335.202 383.257 324.847 373.063C308.635 357.102 296.16 337.747 288.32 316.39C280.48 295.032 277.469 272.203 279.505 249.543C281.54 226.883 288.571 204.956 300.091 185.338C324.044 194.173 348.432 209.414 365.316 228.563C382.201 247.712 394.06 270.759 399.826 295.629C405.593 320.5 405.086 346.414 398.351 371.039C391.616 395.665 378.864 418.23 361.243 436.704C343.622 455.178 321.685 468.981 297.405 476.872C273.125 484.763 247.264 486.494 222.149 481.909C197.034 477.324 173.453 466.567 153.527 450.606ZM346.835 244.859C361.018 260.944 370.979 280.304 375.823 301.195C380.667 322.086 380.241 343.853 374.584 364.539C373.455 368.666 372.125 372.723 370.602 376.699C360.214 370.992 350.629 363.867 342.134 355.504C328.515 342.097 318.036 325.839 311.451 307.899C304.865 289.958 302.336 270.782 304.046 251.748C305.116 239.827 307.833 228.148 312.091 217.035C325.151 224.209 336.916 233.61 346.835 244.859ZM226.574 457.67C247.67 461.521 269.394 460.067 289.789 453.439C294.721 451.836 299.538 449.943 304.217 447.774C297.815 437.798 290.054 428.721 281.131 420.816C266.827 408.143 249.893 398.796 231.545 393.448C213.198 388.101 193.894 386.885 175.02 389.888C163.2 391.768 151.733 395.274 140.936 400.28C148.493 412.055 157.936 422.567 168.932 431.375C185.669 444.782 205.477 453.818 226.574 457.67Z" fill="#EB5B0C"/>
</svg>
